<?xml version="1.0" encoding="UTF-8"?>
<svg version="1.1" xmlns="http://www.w3.org/2000/svg" width="872" height="634">
<path d="M0 0 C-0.83333333 1.66666667 -1.66666667 3.33333333 -2.5 5 C-3.32564453 6.65708984 -3.32564453 6.65708984 -4.16796875 8.34765625 C-5.38353197 10.78075282 -6.61669111 13.20375906 -7.86328125 15.62109375 C-34.40741636 67.34346804 -43.33989633 126.68391302 -25.6875 182.921875 C-15.22417475 214.87943679 0.26606378 243.86231149 23.52734375 268.3515625 C25.29681395 270.24682442 26.95621589 272.13127883 28.59375 274.1328125 C30.5063674 276.4118079 32.30913858 278.33439074 34.5625 280.25 C35.25085938 280.83523438 35.93921875 281.42046875 36.6484375 282.0234375 C37.42445313 282.67570312 38.20046875 283.32796875 39 284 C40.34964844 285.16402344 40.34964844 285.16402344 41.7265625 286.3515625 C72.47846373 312.55964719 109.33928452 328.90689193 149 336 C149.72638672 336.13132324 150.45277344 336.26264648 151.20117188 336.39794922 C178.73954791 341.11333397 207.69795426 337.72899176 235 333 C231.46250394 353.69913233 199.1814416 378.31852178 183 390 C181.94683594 390.77472656 180.89367187 391.54945313 179.80859375 392.34765625 C157.32027739 408.43439053 130.29836677 421.42604775 103.17529297 427.00268555 C100.73872475 427.8454376 100.73872475 427.8454376 99.69580078 430.59692383 C99.35137939 431.78644653 99.35137939 431.78644653 99 433 C99.94617188 433.07476562 100.89234375 433.14953125 101.8671875 433.2265625 C128.55344835 435.72092491 152.78836142 448.72803176 169.98046875 469.37890625 C187.63762792 492.29564475 193.93030125 520.06666409 190.53515625 548.58203125 C186.82552713 573.25386851 171.77497048 596.07086834 152.28710938 611.34228516 C148.35965217 614.19137482 144.25122864 616.66741645 140 619 C139.40461426 619.32726074 138.80922852 619.65452148 138.19580078 619.99169922 C120.31266015 629.57006505 102.90984617 630.58723181 83.0327301 630.50120544 C80.52712961 630.50510379 78.02153133 630.51074849 75.51593822 630.51797634 C70.09351018 630.52961345 64.67130412 630.52897815 59.24888039 630.51719666 C51.18520501 630.49972494 43.12165715 630.5053463 35.05797494 630.51536357 C20.65144811 630.53251174 6.24499765 630.52704248 -8.16152756 630.51200638 C-20.76985761 630.49893255 -33.37816123 630.49376288 -45.98649788 630.49632454 C-46.82422956 630.49648495 -47.66196123 630.49664537 -48.52507872 630.49681065 C-51.92608107 630.49747428 -55.3270834 630.4981767 -58.72808573 630.49893599 C-90.60540308 630.50595353 -122.48267392 630.49049082 -154.35997943 630.46431253 C-182.65251716 630.44120114 -210.94500378 630.43580922 -239.23754883 630.44604492 C-246.48287421 630.44864715 -253.7281996 630.45123222 -260.97352505 630.45364285 C-262.31169518 630.45408902 -262.31169518 630.45408902 -263.67689905 630.4545442 C-287.34953437 630.46216727 -311.02216554 630.45573953 -334.69479901 630.44494683 C-337.24349068 630.44379907 -339.79218236 630.4426559 -342.34087405 630.44152 C-344.03145616 630.44076475 -345.72203826 630.43999911 -347.41262036 630.43922299 C-360.00926573 630.4335756 -372.60589785 630.43488723 -385.20254326 630.43945122 C-399.53297036 630.44456973 -413.86334803 630.43865882 -428.19376283 630.41855692 C-436.20407486 630.40760813 -444.21428966 630.40474235 -452.22460456 630.41384545 C-458.21880154 630.41971319 -464.2128659 630.40976737 -470.20704902 630.3938458 C-472.62205069 630.38981998 -475.03706723 630.39076957 -477.45206326 630.39736467 C-520.50699308 630.50482587 -558.12026264 616.71230843 -589.125 586.3125 C-618.99013186 556.10714296 -632.31143792 516.64650725 -632.17626953 474.77075195 C-631.97574746 452.94623786 -626.62366035 432.56069618 -617 413 C-616.68804688 412.35836914 -616.37609375 411.71673828 -616.0546875 411.05566406 C-611.58472212 401.96582593 -606.42500939 393.87190127 -600 386 C-599.5354541 385.42862305 -599.0709082 384.85724609 -598.59228516 384.26855469 C-584.92356943 367.56284798 -569.02906664 355.07297215 -550 345 C-548.88753906 344.40445312 -547.77507812 343.80890625 -546.62890625 343.1953125 C-514.93313276 327.29442279 -476.23853177 324.21906865 -442 333 C-441.82404297 332.44747559 -441.64808594 331.89495117 -441.46679688 331.32568359 C-433.0822367 305.52072195 -418.77183231 282.13609886 -400.23828125 262.390625 C-398.21295094 260.22744498 -396.28765579 258.01237389 -394.375 255.75 C-390.89511138 251.76145016 -387.05351259 248.39185675 -383 245 C-382.12601563 244.23816406 -381.25203125 243.47632813 -380.3515625 242.69140625 C-352.85262313 219.06296103 -319.36713891 204.15403664 -284 197 C-283.21737793 196.83483887 -282.43475586 196.66967773 -281.62841797 196.49951172 C-244.04791794 188.85052339 -203.42913438 194.12307735 -168 208 C-167.96559814 207.34330322 -167.93119629 206.68660645 -167.89575195 206.01000977 C-165.19108945 157.59864762 -150.37640517 111.81059636 -118.625 74.5625 C-117.92346802 73.73745972 -117.92346802 73.73745972 -117.20776367 72.89575195 C-107.25451366 61.23603742 -97.11347229 50.44544169 -85 41 C-84.46020508 40.57847656 -83.92041016 40.15695313 -83.36425781 39.72265625 C-62.58047643 23.63044642 -27.33613259 -0.73881439 0 0 Z " fill="#191F36" transform="translate(634,4)"/>
<path d="M0 0 C-0.83333333 1.66666667 -1.66666667 3.33333333 -2.5 5 C-3.05042969 6.10472656 -3.60085938 7.20945312 -4.16796875 8.34765625 C-5.38353197 10.78075282 -6.61669111 13.20375906 -7.86328125 15.62109375 C-34.40741636 67.34346804 -43.33989633 126.68391302 -25.6875 182.921875 C-15.22417475 214.87943679 0.26606378 243.86231149 23.52734375 268.3515625 C25.29681395 270.24682442 26.95621589 272.13127883 28.59375 274.1328125 C30.5063674 276.4118079 32.30913858 278.33439074 34.5625 280.25 C35.25085938 280.83523438 35.93921875 281.42046875 36.6484375 282.0234375 C37.42445313 282.67570312 38.20046875 283.32796875 39 284 C39.89976562 284.77601563 40.79953125 285.55203125 41.7265625 286.3515625 C72.47846373 312.55964719 109.33928452 328.90689193 149 336 C149.72638672 336.13132324 150.45277344 336.26264648 151.20117188 336.39794922 C178.73954791 341.11333397 207.69795426 337.72899176 235 333 C231.46250394 353.69913233 199.1814416 378.31852178 183 390 C181.94683594 390.77472656 180.89367187 391.54945313 179.80859375 392.34765625 C156.90345736 408.7325575 130.39307189 420.3753398 103.17529297 427.39331055 C100.9776714 427.93179434 100.9776714 427.93179434 99 429 C97.72653212 426.45306424 97.69213503 424.04153948 97.45605469 421.23730469 C96.58772982 411.28243333 94.49150036 402.34461276 91 393 C90.5565625 391.80632812 90.113125 390.61265625 89.65625 389.3828125 C78.16935049 360.72937983 55.19108374 338.22117399 26.95654297 326.12451172 C0.95595423 315.56234327 -26.90107251 315.73190694 -54 322 C-54.52207031 320.83726562 -55.04414062 319.67453125 -55.58203125 318.4765625 C-64.751688 298.39427388 -75.92222873 280.52211336 -90.92578125 264.26171875 C-92.80121586 262.21675333 -94.59032533 260.12380525 -96.375 258 C-116.12239269 235.45091772 -142.95772903 220.91693297 -170 209 C-169.34 208.67 -168.68 208.34 -168 208 C-167.61185861 205.78913685 -167.61185861 205.78913685 -167.54296875 203.09375 C-167.48560547 202.0531543 -167.42824219 201.01255859 -167.36914062 199.94042969 C-167.30919922 198.80508789 -167.24925781 197.66974609 -167.1875 196.5 C-164.16739434 151.77542716 -147.77436488 108.75810004 -118.625 74.5625 C-118.15731201 74.01247314 -117.68962402 73.46244629 -117.20776367 72.89575195 C-107.25451366 61.23603742 -97.11347229 50.44544169 -85 41 C-84.46020508 40.57847656 -83.92041016 40.15695313 -83.36425781 39.72265625 C-62.58047643 23.63044642 -27.33613259 -0.73881439 0 0 Z " fill="#FEF960" transform="translate(634,4)"/>
<path d="M0 0 C-0.49418759 4.62661831 -2.54281331 7.52975919 -5.375 11.0625 C-5.82198242 11.62976807 -6.26896484 12.19703613 -6.72949219 12.78149414 C-11.52754246 18.79074326 -16.67674606 24.45615507 -22 30 C-22.53641113 30.56364258 -23.07282227 31.12728516 -23.62548828 31.70800781 C-31.84154103 40.30129198 -40.40899221 47.9747043 -50 55 C-51.58748047 56.16982422 -51.58748047 56.16982422 -53.20703125 57.36328125 C-76.12725398 73.72679415 -102.6033777 85.37442434 -129.82470703 92.39331055 C-132.0223286 92.93179434 -132.0223286 92.93179434 -134 94 C-135.27346788 91.45306424 -135.30786497 89.04153948 -135.54394531 86.23730469 C-137.06211616 68.83230335 -143.19955996 53.52257868 -151 38 C-149.88254395 38.01047363 -148.76508789 38.02094727 -147.61376953 38.03173828 C-143.37552229 38.06857462 -139.13728839 38.09112605 -134.89892578 38.10986328 C-133.08184411 38.11977871 -131.26477775 38.13331512 -129.44775391 38.15087891 C-112.75517104 38.30792036 -96.65679746 37.2805779 -80.375 33.375 C-79.27728271 33.11340088 -78.17956543 32.85180176 -77.04858398 32.58227539 C-51.34062229 26.2672952 -26.16040691 16.7070495 -4.30859375 1.51171875 C-2 0 -2 0 0 0 Z " fill="#FEE642" transform="translate(867,339)"/>
<path d="M0 0 C0.13116012 3.99491874 -0.04659951 7.72337269 -0.65625 11.67578125 C-8.29307691 61.56398641 -1.77038369 113.36934505 22.15234375 158.21484375 C23 160 23 160 23 162 C19.58598116 160.51698729 17.30640463 158.56243446 14.625 156 C-2.34837373 140.55398355 -22.92676921 129.74834978 -44 121 C-43.01 120.505 -43.01 120.505 -42 120 C-41.61185861 117.78913685 -41.61185861 117.78913685 -41.54296875 115.09375 C-41.48560547 114.0531543 -41.42824219 113.01255859 -41.36914062 111.94042969 C-41.30919922 110.80508789 -41.24925781 109.66974609 -41.1875 108.5 C-38.89164954 74.50088113 -28.78881356 41.46405947 -11.3125 12.1875 C-10.63489624 11.04716309 -10.63489624 11.04716309 -9.94360352 9.88378906 C-3.83739415 0 -3.83739415 0 0 0 Z " fill="#FEE641" transform="translate(508,92)"/>
<path d="M0 0 C0.66 0 1.32 0 2 0 C0.44280633 3.72232176 -1.84993543 6.10804196 -4.68359375 8.94921875 C-5.61107422 9.87927734 -6.53855469 10.80933594 -7.49414062 11.76757812 C-7.97729736 12.24654541 -8.4604541 12.7255127 -8.95825195 13.21899414 C-10.43613438 14.68614429 -11.90301766 16.16368705 -13.36914062 17.64257812 C-14.29791016 18.56876953 -15.22667969 19.49496094 -16.18359375 20.44921875 C-17.03493896 21.29830811 -17.88628418 22.14739746 -18.76342773 23.0222168 C-21 25 -21 25 -24 26 C-22.33093118 21.86754647 -19.37735481 18.88887279 -16.375 15.6875 C-15.5718335 14.82354614 -15.5718335 14.82354614 -14.75244141 13.94213867 C-10.73275061 9.66616696 -6.50829349 5.75691124 -2 2 C-1.34 1.34 -0.68 0.68 0 0 Z " fill="#818491" transform="translate(253,247)"/>
<path d="M0 0 C5.73235729 1.91078576 9.27838361 7.42772844 13 12 C10.35261084 13.4606285 9.10551666 14 6 14 C4.02 9.38 2.04 4.76 0 0 Z " fill="#F8E13E" transform="translate(574,312)"/>
<path d="M0 0 C0.33 0 0.66 0 1 0 C1 6.27 1 12.54 1 19 C-0.32 18.34 -1.64 17.68 -3 17 C-2.34 17 -1.68 17 -1 17 C-0.67 11.39 -0.34 5.78 0 0 Z " fill="#F7EFAC" transform="translate(467,195)"/>
<path d="M0 0 C0.66 0 1.32 0 2 0 C1.75 2.875 1.75 2.875 1 6 C-0.9375 7.3125 -0.9375 7.3125 -3 8 C-3.99 8.495 -3.99 8.495 -5 9 C-3.7580393 5.56072421 -2.44259716 2.74792181 0 0 Z " fill="#FFF081" transform="translate(508,87)"/>
</svg>
