<?xml version="1.0" encoding="UTF-8"?>
<!DOCTYPE svg PUBLIC "-//W3C//DTD SVG 1.1//EN" "http://www.w3.org/Graphics/SVG/1.1/DTD/svg11.dtd">
<svg xmlns="http://www.w3.org/2000/svg" version="1.1" width="875px" height="439px" style="shape-rendering:geometricPrecision; text-rendering:geometricPrecision; image-rendering:optimizeQuality; fill-rule:evenodd; clip-rule:evenodd" xmlns:xlink="http://www.w3.org/1999/xlink">
<g><path style="opacity:0.991" fill="#ac531a" d="M 433.5,4.5 C 443.198,3.2653 450.364,6.93197 455,15.5C 455.667,56.5 455.667,97.5 455,138.5C 454.672,149.495 449.005,155.161 438,155.5C 430.54,155.268 424.874,151.935 421,145.5C 420.333,102.833 420.333,60.1667 421,17.5C 422.682,10.6529 426.849,6.31958 433.5,4.5 Z"/></g>
<g><path style="opacity:0.993" fill="#ad541c" d="M 628.5,51.5 C 639.045,49.855 646.545,53.855 651,63.5C 651.667,66.8333 651.667,70.1667 651,73.5C 634.153,111.528 616.486,149.195 598,186.5C 589.6,192.891 581.1,193.058 572.5,187C 567.544,181.188 566.377,174.688 569,167.5C 585.12,131.26 601.786,95.2602 619,59.5C 621.362,55.7553 624.528,53.0886 628.5,51.5 Z"/></g>
<g><path style="opacity:0.991" fill="#ae551d" d="M 199.5,75.5 C 204.628,75.1115 209.628,75.6115 214.5,77C 245.363,106.196 275.197,136.363 304,167.5C 307.516,181.803 302.016,190.137 287.5,192.5C 285.133,192.158 282.8,191.658 280.5,191C 250.696,163.53 221.863,135.03 194,105.5C 185.3,93.417 187.134,83.417 199.5,75.5 Z"/></g>
<g><path style="opacity:0.998" fill="#ad531b" d="M 415.5,187.5 C 520.514,183.489 600.014,226.156 654,315.5C 672.483,348.783 682.316,384.449 683.5,422.5C 519.195,423.496 354.861,423.829 190.5,423.5C 196.002,338.589 234.002,272.755 304.5,226C 338.537,204.488 375.537,191.655 415.5,187.5 Z M 637.5,380.5 C 620.357,382.162 603.024,383.162 585.5,383.5C 469.165,383.833 352.831,383.5 236.5,382.5C 259.298,307.202 308.298,258.035 383.5,235C 475.536,214.894 550.036,242.061 607,316.5C 620.114,336.396 630.281,357.73 637.5,380.5 Z"/></g>
<g><path style="opacity:0.994" fill="#ad541d" d="M 799.5,212.5 C 816.356,211.855 823.523,219.855 821,236.5C 819.939,239.562 818.106,242.062 815.5,244C 780.321,265.092 744.655,285.426 708.5,305C 697.779,306.891 690.613,302.724 687,292.5C 685.35,286.074 686.85,280.574 691.5,276C 727.07,254.051 763.07,232.884 799.5,212.5 Z"/></g>
<g><path style="opacity:0.994" fill="#ad541d" d="M 66.5,216.5 C 70.6049,216.234 74.6049,216.734 78.5,218C 114.655,237.574 150.321,257.908 185.5,279C 194.027,291.559 191.694,301.559 178.5,309C 175.167,309.667 171.833,309.667 168.5,309C 131.349,289.263 95.0158,268.263 59.5,246C 52.27,233.753 54.6033,223.919 66.5,216.5 Z"/></g>
<g><path style="opacity:0.064" fill="#fdfbf9" d="M 637.5,380.5 C 638.404,381.209 638.737,382.209 638.5,383.5C 620.833,383.5 603.167,383.5 585.5,383.5C 603.024,383.162 620.357,382.162 637.5,380.5 Z"/></g>
<g><path style="opacity:0.995" fill="#ac531b" d="M 15.5,396.5 C 57.5013,396.333 99.5013,396.5 141.5,397C 152.39,401.321 156.224,409.155 153,420.5C 150.549,426.616 146.049,430.116 139.5,431C 98.5,431.667 57.5,431.667 16.5,431C 7.68371,428.546 3.35038,422.713 3.5,413.5C 3.64025,405.038 7.64025,399.371 15.5,396.5 Z"/></g>
<g><path style="opacity:0.994" fill="#ac531b" d="M 734.5,396.5 C 776.168,396.333 817.835,396.5 859.5,397C 869.758,401.057 873.591,408.557 871,419.5C 868.833,426.01 864.333,429.843 857.5,431C 815.138,431.961 772.805,431.628 730.5,430C 720.576,422.722 718.41,413.555 724,402.5C 727.069,399.554 730.569,397.554 734.5,396.5 Z"/></g>
</svg>
