<?xml version="1.0" encoding="UTF-8"?>
<!DOCTYPE svg PUBLIC "-//W3C//DTD SVG 1.1//EN" "http://www.w3.org/Graphics/SVG/1.1/DTD/svg11.dtd">
<svg xmlns="http://www.w3.org/2000/svg" version="1.1" width="1000px" height="1000px" style="shape-rendering:geometricPrecision; text-rendering:geometricPrecision; image-rendering:optimizeQuality; fill-rule:evenodd; clip-rule:evenodd" xmlns:xlink="http://www.w3.org/1999/xlink">
<g><path style="opacity:1" fill="#f7e8c0" d="M -0.5,-0.5 C 332.833,-0.5 666.167,-0.5 999.5,-0.5C 999.5,332.833 999.5,666.167 999.5,999.5C 666.167,999.5 332.833,999.5 -0.5,999.5C -0.5,666.167 -0.5,332.833 -0.5,-0.5 Z"/></g>
<g><path style="opacity:1" fill="#ac5219" d="M 493.5,270.5 C 504.564,268.783 512.731,272.783 518,282.5C 518.667,327.833 518.667,373.167 518,418.5C 514.058,429.56 506.224,434.06 494.5,432C 487.903,429.737 483.736,425.237 482,418.5C 481.333,373.167 481.333,327.833 482,282.5C 484.691,277.311 488.524,273.311 493.5,270.5 Z"/></g>
<g><path style="opacity:1" fill="#ac521a" d="M 704.5,320.5 C 723.518,319.342 731.351,328.009 728,346.5C 710,385.167 692,423.833 674,462.5C 666.619,470.86 657.786,472.694 647.5,468C 640.826,462.313 638.326,455.146 640,446.5C 658,407.833 676,369.167 694,330.5C 696.738,326.26 700.238,322.926 704.5,320.5 Z"/></g>
<g><path style="opacity:1" fill="#ac521a" d="M 245.5,345.5 C 252.294,344.73 258.294,346.564 263.5,351C 293,380.5 322.5,410 352,439.5C 359.362,448.784 359.195,457.951 351.5,467C 343.661,472.43 335.661,472.763 327.5,468C 296.667,437.167 265.833,406.333 235,375.5C 228.556,362.049 232.056,352.049 245.5,345.5 Z"/></g>
<g><path style="opacity:1" fill="#ac5219" d="M 763.5,713.5 C 763.5,715.833 763.5,718.167 763.5,720.5C 587.5,720.5 411.5,720.5 235.5,720.5C 235.5,716.5 235.5,712.5 235.5,708.5C 243.088,631.147 277.421,568.647 338.5,521C 415.348,465.43 499.015,452.43 589.5,482C 671.87,515.369 727.037,574.202 755,658.5C 760.329,676.47 763.162,694.803 763.5,713.5 Z"/></g>
<g><path style="opacity:1" fill="#ac531a" d="M 889.5,493.5 C 906.232,493.06 913.732,501.06 912,517.5C 911.064,521.207 909.231,524.374 906.5,527C 868.33,549.253 829.996,571.253 791.5,593C 774.333,594.5 766.5,586.667 768,569.5C 769.384,565.242 771.884,561.742 775.5,559C 813.726,537.392 851.726,515.559 889.5,493.5 Z"/></g>
<g><path style="opacity:1" fill="#ac521a" d="M 100.5,498.5 C 107.255,497.668 113.589,498.835 119.5,502C 155.003,522.919 190.67,543.586 226.5,564C 234.021,571.343 235.521,579.843 231,589.5C 225.257,597.058 217.757,599.558 208.5,597C 171.663,575.414 134.663,554.081 97.5,533C 87.8459,525.513 86.0126,516.347 92,505.5C 94.4412,502.546 97.2745,500.213 100.5,498.5 Z"/></g>
<g><path style="opacity:1" fill="#f7e8c0" d="M 718.5,678.5 C 645.836,679.833 572.836,680.5 499.5,680.5C 426.164,680.5 353.164,679.833 280.5,678.5C 292.037,632.256 315.704,593.422 351.5,562C 416.856,508.395 490.189,493.729 571.5,518C 634.523,541.758 680.023,584.258 708,645.5C 712.611,656.165 716.111,667.165 718.5,678.5 Z"/></g>
<g><path style="opacity:1" fill="#d19c6c" d="M 280.5,678.5 C 353.164,679.833 426.164,680.5 499.5,680.5C 572.836,680.5 645.836,679.833 718.5,678.5C 719.404,679.209 719.737,680.209 719.5,681.5C 572.833,681.5 426.167,681.5 279.5,681.5C 279.263,680.209 279.596,679.209 280.5,678.5 Z"/></g>
<g><path style="opacity:1" fill="#ac5219" d="M 45.5,691.5 C 90.5012,691.333 135.501,691.5 180.5,692C 193.839,697.526 197.672,707.026 192,720.5C 189.027,724.398 185.194,726.898 180.5,728C 135.833,728.667 91.1667,728.667 46.5,728C 35.4512,724.082 30.9512,716.249 33,704.5C 35.3792,698.29 39.5459,693.957 45.5,691.5 Z"/></g>
<g><path style="opacity:1" fill="#ac5219" d="M 817.5,691.5 C 862.501,691.333 907.501,691.5 952.5,692C 966.547,697.948 970.047,707.781 963,721.5C 960.222,724.807 956.722,726.974 952.5,728C 907.167,728.667 861.833,728.667 816.5,728C 804.281,720.969 801.448,711.135 808,698.5C 810.825,695.524 813.992,693.191 817.5,691.5 Z"/></g>
<g><path style="opacity:1" fill="#e4c195" d="M 235.5,708.5 C 235.5,712.5 235.5,716.5 235.5,720.5C 411.5,720.5 587.5,720.5 763.5,720.5C 763.5,718.167 763.5,715.833 763.5,713.5C 764.473,715.948 764.806,718.615 764.5,721.5C 587.833,721.5 411.167,721.5 234.5,721.5C 234.182,716.968 234.515,712.634 235.5,708.5 Z"/></g>
</svg>
